<?xml version="1.0" encoding="UTF-8" standalone="no"?><!DOCTYPE svg PUBLIC "-//W3C//DTD SVG 1.1//EN" "http://www.w3.org/Graphics/SVG/1.1/DTD/svg11.dtd"><svg width="100%" height="100%" viewBox="0 0 625 1563" version="1.1" xmlns="http://www.w3.org/2000/svg" xmlns:xlink="http://www.w3.org/1999/xlink" xml:space="preserve" xmlns:serif="http://www.serif.com/" style="fill-rule:evenodd;clip-rule:evenodd;stroke-linejoin:round;stroke-miterlimit:2;"><rect id="Artboard1" x="0" y="0" width="625" height="1562.5" style="fill:none;"/><path d="M544.916,1173.68c0,68.556 -20.136,118.975 -60.41,151.255c-43.347,34.739 -113.287,52.109 -209.82,52.109c-61.485,-0 -108.522,-10.76 -141.11,-32.28c-35.661,-23.672 -53.492,-59.949 -53.492,-108.83c-0,-26.439 3.228,-53.185 9.684,-80.239c6.456,-27.054 15.218,-54.261 26.285,-81.622c6.763,-16.601 18.446,-42.118 35.047,-76.55l18.446,8.301c-21.52,44.269 -35.739,79.163 -42.656,104.679c-6.917,25.517 -10.376,48.881 -10.376,70.094c0,38.121 13.604,67.096 40.811,86.925c27.208,19.83 66.021,29.744 116.439,29.744c58.104,0 109.598,-10.299 154.483,-30.896c55.645,-25.517 83.467,-61.179 83.467,-106.986c-0,-31.357 -4.612,-60.563 -13.834,-87.617c-7.994,-23.979 -19.368,-44.884 -34.125,-62.715l38.275,-94.535c16.294,24.902 27.515,50.265 33.663,76.089c6.149,25.824 9.223,60.102 9.223,102.835l0,80.239Zm-169.701,-353.236l-35.969,66.866l-74.705,-38.736l34.125,-67.327l76.549,39.197Z" style="fill-rule:nonzero;"/><path d="M446.969,1399.72c0,24.115 -13.63,47.968 -40.891,71.559c-47.182,18.349 -123.198,48.755 -228.047,91.219c-0,-23.067 11.533,-45.085 34.6,-66.055c43.513,-18.349 121.625,-50.59 234.338,-96.723Z" style="fill-rule:nonzero;"/></svg>